<?xml version="1.0" encoding="utf-8"?>
<!-- Generator: Adobe Illustrator 27.0.0, SVG Export Plug-In . SVG Version: 6.00 Build 0)  -->
<svg version="1.1" id="kidney_bean" xmlns="http://www.w3.org/2000/svg" xmlns:xlink="http://www.w3.org/1999/xlink" x="0px"
	 y="0px" viewBox="0 0 512 823.3" enable-background="new 0 0 512 823.3" xml:space="preserve">
<g id="background" display="none">
</g>
<g id="icon">
	<g>
		<path fill="#1E1E1E" d="M177.7,823.3c-1.3,0-2.4-0.2-3.7-0.3l-24.4-4.8c-4.8-1-7.9-5.6-6.9-10.5c1-4.8,5.6-7.9,10.5-6.9l24.4,4.8
			c0.2,0,0.5,0.2,0.8-0.2s0.3-0.6,0.3-0.8c-1.1-98.1,36-169.1,37.5-172c2.3-4.3,7.7-5.9,11.9-3.7c4.3,2.3,5.9,7.7,3.7,11.9
			c-0.5,1-36.5,70.4-35.5,163.5c0,5.6-2.4,10.9-6.8,14.5C186.2,821.9,181.9,823.3,177.7,823.3z"/>
		<path fill="#1E1E1E" d="M127,457.7c-1,0-1.8-0.2-2.7-0.5c-1.3-0.3-30.2-9.8-59.5-32.6C25.6,393.9,4.7,353.5,4.7,307.8
			c0-4.8,4-8.8,8.8-8.8s8.8,4,8.8,8.8c0,40.4,17.8,74.8,52.9,102.4c26.7,21.1,54,29.9,54.3,30.1c4.7,1.4,7.2,6.4,5.8,11.1
			C134.3,455.3,130.7,457.7,127,457.7z"/>
		<path fill="#BF7667" d="M485.1,215.4c28.1-38.4,35.1-88.8,16.7-132.8c-13-31.5-39.2-61.3-90-74.6C280.3-26.6,191,58.1,150.8,132.9
			c-31.7,59-111.6,302.3,0,448.3s318.4,122,350.2,0c26.7-102.6-39.1-138.3-58-191.8C427.4,344.6,446.5,268.1,485.1,215.4z"/>
		<path fill="#1E1E1E" d="M400.5,823.3c-2.7,0-5.3-1.1-7.1-3.5c-2.9-3.9-2.3-9.5,1.6-12.4c5.3-4,11.3-8.4,17.7-13
			c1.8-1.3,2.4-3.4,1.4-5.5c-33.1-77.7-48.6-151.9-48.7-152.7c-1-4.8,2.1-9.5,6.9-10.5s9.5,2.1,10.5,6.9
			c0.2,0.8,15.3,73.3,47.6,149.4c4.2,9.6,1,20.7-7.6,26.9c-6.3,4.5-12.1,8.7-17.2,12.5C404.2,822.7,402.3,823.3,400.5,823.3z"/>
		<path fill="#FFFFFF" d="M416.6,335.6c1.9-5,3.1-11.3,2.7-16.7c-0.5-9.2-9.6-18.3-21.4-11.6c-22,12.7-22.7,63.4-9.3,84.3
			c7.6,11.9,28.9,15.3,29.3-3.2C418.4,363.3,405.2,365.4,416.6,335.6z"/>
		<g>
			<path fill="#9E514F" d="M333,313.3c0,0,4.7-16.4-19.6-17.8c-22.2-1.3-33.9,14.6-19.3,23.5c2.6,1.6,5.3,2.4,8.2,2.7
				C310.5,322.6,329.8,323.7,333,313.3z"/>
			<path fill="#9E514F" d="M184.6,313.5c0,0,4.5-16.6-19-17.8c-21.5-1.1-32.8,15-18.7,23.8c2.4,1.6,5.1,2.4,7.9,2.7
				C162.7,323.1,181.7,324.1,184.6,313.5z"/>
			<path fill="#1E1E1E" d="M190.9,293.4c-4,0.5-7.6-2.7-9.2-7.7c-1.9-5.6-2.7-14.5,4.2-24c11.7-16.1,16.1,6.9,15.9,11.4
				C201.5,278.2,198.9,292.4,190.9,293.4z"/>
			<path fill="#1E1E1E" d="M283.1,295.6c-3.9,0.2-7.1-2.7-8.5-7.2c-1.8-5.3-2.6-13.5,4.7-22.2c11.9-14.3,15.6,7.2,15.3,11.3
				C294.2,282.1,291.3,295.3,283.1,295.6z"/>
			<path fill="#1E1E1E" d="M208.9,239.8c0,0,5.3-8.7-11.3-12.1c-17.4-3.5-33.9,5.6-28.9,13c5,7.4,11.6,0.6,12.5,0.3
				c0.8-0.2,5.3-4.7,14.5-0.8C195.7,240.3,204.5,246.7,208.9,239.8z"/>
			<path fill="#1E1E1E" d="M273.2,246.1c0,0-2.9-10.6,15.4-10c18.3,0.6,33.9,13.8,26.9,20.3c-7.1,6.4-12.4-2.1-13.3-2.6
				c-0.8-0.5-4.7-6.1-15.1-4.2C287,249.6,276.1,254.4,273.2,246.1z"/>
			<path fill="#1E1E1E" d="M274.3,331.6c0,0,8,6.3-3.5,15.4c-9.8,7.7-32.3,13.2-50.8,7.1c-14.1-4.7-30.5-13.8-23.6-23.8
				c1.3-1.8,3.4-2.9,5.5-2.1c2.3,1,4.7,4.7,10.8,8.7c6.3,4.2,13.5,5.3,18.3,5.9c5.6,0.8,8.8,0.5,11.6,0.3c5.5-0.3,15.8-3.4,24-10.5
				C268.7,330.8,271.4,329.9,274.3,331.6z"/>
		</g>
		<path fill="#1E1E1E" d="M214.3,526.2c-10,0-19.9-1.1-30.1-3.2c-4.8-1-7.9-5.8-6.8-10.5c1-4.8,5.8-7.9,10.5-6.8
			c39.6,8.5,76.9-1.6,111.3-30.1c26.2-21.7,40.7-46.5,40.8-46.8c2.4-4.2,7.9-5.6,12.1-3.2c4.2,2.4,5.6,7.9,3.2,12.1
			c-0.6,1.1-15.9,27.5-44.4,51.3C281.4,513.5,248.4,526.2,214.3,526.2z"/>
		<path fill="#1E1E1E" d="M14.1,332.6c-6.9,0-13-5.3-13.7-12.4C0,315.4,0,308.6,0,307.8c0-7.6,6.3-13.7,13.8-13.7c0,0,0,0,0.2,0
			c7.6,0,13.8,6.3,13.7,14l0,0c0,2.3,0,6.8,0.3,9.2c0.8,7.6-4.7,14.5-12.2,15.3C15.1,332.6,14.6,332.6,14.1,332.6z"/>
		<path fill="#1E1E1E" d="M196.8,530.2c-0.5,0-1.1,0-1.6-0.2c-4.8-0.6-11.4-2.1-12.1-2.3c-7.4-1.8-12.1-9.2-10.3-16.7
			c1.8-7.4,9.2-12.1,16.7-10.3c2.3,0.5,6.6,1.4,9,1.8c7.6,1,13,7.7,12.1,15.4C209.7,525.1,203.7,530.2,196.8,530.2z"/>
	</g>
</g>
</svg>
